<?xml version="1.0" encoding="UTF-8" standalone="no"?>
<svg
   xmlns:dc="http://purl.org/dc/elements/1.1/"
   xmlns:cc="http://creativecommons.org/ns#"
   xmlns:rdf="http://www.w3.org/1999/02/22-rdf-syntax-ns#"
   xmlns:svg="http://www.w3.org/2000/svg"
   xmlns="http://www.w3.org/2000/svg"
   xmlns:sodipodi="http://sodipodi.sourceforge.net/DTD/sodipodi-0.dtd"
   xmlns:inkscape="http://www.inkscape.org/namespaces/inkscape"
   version="1.1"
   x="0px"
   y="0px"
   viewBox="0 0 24 24"
   enable-background="new 0 0 100 100"
   xml:space="preserve"
   id="svg6"
   sodipodi:docname="footprints.svg"
   width="24"
   height="24"
   inkscape:version="0.92.2 5c3e80d, 2017-08-06"><metadata
     id="metadata12"><rdf:RDF><cc:Work
         rdf:about=""><dc:format>image/svg+xml</dc:format><dc:type
           rdf:resource="http://purl.org/dc/dcmitype/StillImage" /><dc:title></dc:title></cc:Work></rdf:RDF></metadata><defs
     id="defs10" /><sodipodi:namedview
     pagecolor="#ffffff"
     bordercolor="#666666"
     borderopacity="1"
     objecttolerance="10"
     gridtolerance="10"
     guidetolerance="10"
     inkscape:pageopacity="0"
     inkscape:pageshadow="2"
     inkscape:window-width="1280"
     inkscape:window-height="756"
     id="namedview8"
     showgrid="false"
     inkscape:zoom="8"
     inkscape:cx="20.055395"
     inkscape:cy="13.01092"
     inkscape:window-x="70"
     inkscape:window-y="44"
     inkscape:window-maximized="0"
     inkscape:current-layer="svg6" /><g
     id="g110"
     transform="rotate(5,15.433025,16.819592)"><g
       id="g93"><path
         d="m 17.823075,15.269953 c 0.156738,-2.728885 -0.914287,-4.954849 -2.042006,-4.954849 -1.127498,0 -2.784093,0.90185 -2.752988,3.687018 0.02019,1.81318 1.610688,3.783158 1.589179,4.718975 l 2.842814,-0.0625 c 0.07842,-0.638056 0.319653,-2.634117 0.363001,-3.388644 z"
         id="path2"
         inkscape:connector-curvature="0"
         style="stroke-width:0.12632822"
         sodipodi:nodetypes="cscccc" /><path
         d="m 14.511261,19.865938 c -0.249391,1.182828 -0.670059,3.427536 1.311061,3.457917 1.198422,0.01859 1.636759,-1.115784 1.619772,-3.546305 z"
         id="path4"
         inkscape:connector-curvature="0"
         style="stroke-width:0.11891064"
         sodipodi:nodetypes="cccc" /></g></g><g
     id="g105"><path
       sodipodi:nodetypes="cscccc"
       style="stroke-width:0.12632822"
       inkscape:connector-curvature="0"
       id="path2-0"
       d="m 5.2113487,5.6565749 c -0.156738,-2.728885 0.914287,-4.95484903 2.042006,-4.95484903 1.127498,0 2.7840933,0.90185003 2.7529883,3.68701803 -0.02019,1.81318 -1.6106883,3.783158 -1.5891793,4.7189753 l -2.842814,-0.0625 C 5.4959297,8.4071629 5.2546967,6.4111019 5.2113487,5.6565749 Z" /><path
       sodipodi:nodetypes="cccc"
       style="stroke-width:0.11891064"
       inkscape:connector-curvature="0"
       id="path4-2"
       d="m 8.5231627,10.25256 c 0.249391,1.182828 0.670059,3.427536 -1.311061,3.457917 -1.198422,0.01859 -1.636759,-1.115784 -1.619772,-3.546305 z" /></g></svg>