<?xml version="1.0" encoding="UTF-8" standalone="no"?>
<svg
   xmlns:osb="http://www.openswatchbook.org/uri/2009/osb"
   xmlns:dc="http://purl.org/dc/elements/1.1/"
   xmlns:cc="http://creativecommons.org/ns#"
   xmlns:rdf="http://www.w3.org/1999/02/22-rdf-syntax-ns#"
   xmlns:svg="http://www.w3.org/2000/svg"
   xmlns="http://www.w3.org/2000/svg"
   xmlns:sodipodi="http://sodipodi.sourceforge.net/DTD/sodipodi-0.dtd"
   xmlns:inkscape="http://www.inkscape.org/namespaces/inkscape"
   version="1.1"
   x="0px"
   y="0px"
   viewBox="0 0 24 24"
   xml:space="preserve"
   id="svg181"
   sodipodi:docname="irregular-selection.svg"
   inkscape:version="0.92.2 5c3e80d, 2017-08-06"
   width="24"
   height="24"><metadata
     id="metadata187"><rdf:RDF><cc:Work
         rdf:about=""><dc:format>image/svg+xml</dc:format><dc:type
           rdf:resource="http://purl.org/dc/dcmitype/StillImage" /><dc:title></dc:title></cc:Work></rdf:RDF></metadata><defs
     id="defs185"><linearGradient
       id="linearGradient1108"
       osb:paint="solid"><stop
         style="stop-color:#000000;stop-opacity:1;"
         offset="0"
         id="stop1106" /></linearGradient></defs><sodipodi:namedview
     pagecolor="#ffffff"
     bordercolor="#666666"
     borderopacity="1"
     objecttolerance="10"
     gridtolerance="10"
     guidetolerance="10"
     inkscape:pageopacity="0"
     inkscape:pageshadow="2"
     inkscape:window-width="740"
     inkscape:window-height="640"
     id="namedview183"
     showgrid="false"
     inkscape:zoom="9.44"
     inkscape:cx="9.8293462"
     inkscape:cy="14.960392"
     inkscape:window-x="99"
     inkscape:window-y="21"
     inkscape:window-maximized="0"
     inkscape:current-layer="svg181" /><path
     d="M 21.669931,15.185148 9.1727763,9.9172659 14.440658,22.414421 16.348347,17.389475 c 0.0537,-0.135533 0.161106,-0.242936 0.296638,-0.296638 z"
     id="path179"
     style="fill:none;fill-opacity:1;stroke:none;stroke-width:0.25572243;stroke-opacity:1"
     inkscape:connector-curvature="0" /><path
     style="color:#000000;font-style:normal;font-variant:normal;font-weight:normal;font-stretch:normal;font-size:medium;line-height:normal;font-family:sans-serif;font-variant-ligatures:normal;font-variant-position:normal;font-variant-caps:normal;font-variant-numeric:normal;font-variant-alternates:normal;font-feature-settings:normal;text-indent:0;text-align:start;text-decoration:none;text-decoration-line:none;text-decoration-style:solid;text-decoration-color:#000000;letter-spacing:normal;word-spacing:normal;text-transform:none;writing-mode:lr-tb;direction:ltr;text-orientation:mixed;dominant-baseline:auto;baseline-shift:baseline;text-anchor:start;white-space:normal;shape-padding:0;clip-rule:nonzero;display:inline;overflow:visible;visibility:visible;opacity:1;isolation:auto;mix-blend-mode:normal;color-interpolation:sRGB;color-interpolation-filters:linearRGB;solid-color:#000000;solid-opacity:1;vector-effect:none;fill-opacity:1;fill-rule:nonzero;stroke:none;stroke-width:1.148;stroke-linecap:round;stroke-linejoin:round;stroke-miterlimit:4;stroke-dasharray:2.296, 2.29599999999999982;stroke-dashoffset:0;stroke-opacity:1;color-rendering:auto;image-rendering:auto;shape-rendering:auto;text-rendering:auto;enable-background:accumulate"
     d="m 3.9824219,0.95117188 -0.2617188,0.46484372 0.234375,0.4785156 0.1210938,0.068359 1.6640625,0.6855469 0.011719,0.00586 L 6.1816406,2.84375 6.7128906,2.8085938 6.9863281,2.3515625 6.765625,1.8652344 6.6445312,1.7949219 6.203125,1.5996094 6.1894531,1.59375 4.5136719,0.90234375 Z M 2.7402344,2.2011719 2.7109375,2.3378906 2.5019531,4.625 2.7050781,5.1171875 3.2265625,5.2304688 3.6152344,4.8671875 3.6445312,4.7304688 3.8535156,2.4433594 3.6503906,1.9511719 3.1289062,1.8378906 Z M 8.2265625,2.75 7.9414062,3.1992188 8.1484375,3.6894531 8.265625,3.765625 10.339844,4.7519531 10.873047,4.7324219 11.158203,4.28125 10.951172,3.7910156 10.833984,3.7148438 8.7597656,2.7285156 Z m 4.1464845,1.9726562 -0.285156,0.4492188 0.207031,0.4921875 0.117187,0.074219 0.855469,0.4082032 0.0098,0.00586 h 0.002 l 1.181641,0.59375 0.533203,-0.00781 L 15.291016,6.2949219 15.09375,5.7988281 14.978516,5.7207031 13.783203,5.1210938 13.773438,5.1152344 12.90625,4.703125 Z M 2.3222656,6.7753906 2.2929688,6.9121094 2.0839844,9.1972656 2.2890625,9.6914062 2.8085938,9.8027344 3.1972656,9.4394531 3.2285156,9.3027344 3.4355469,7.015625 3.2324219,6.5234375 2.7109375,6.4101562 Z m 14.1738284,-0.013672 -0.296875,0.4433593 0.197265,0.4960938 0.115235,0.078125 1.71875,0.8632812 0.332031,0.1679688 0.53125,-0.00781 0.298828,-0.4414063 -0.195312,-0.4960937 -0.117188,-0.078125 -0.332031,-0.1679688 v -0.00195 l -1.71875,-0.8632813 z m 4.099609,2.0703124 -0.296875,0.4433594 0.19336,0.4960938 0.117187,0.078125 2.046875,1.0371096 0.533203,-0.0059 L 23.488281,10.4375 23.292969,9.9414062 23.175781,9.8632812 21.128906,8.8261719 Z m 1.0625,2.0449218 -0.150391,0.07422 -0.01367,0.0059 -1.660157,0.867188 -0.01563,0.0078 -0.220703,0.125 -0.291015,0.447266 0.201171,0.492187 0.521485,0.115235 0.128906,-0.05274 0.207031,-0.117187 0.01563,-0.0078 1.63086,-0.851562 0.01367,-0.0078 0.138671,-0.06641 0.314454,-0.429687 -0.173828,-0.503907 -0.513672,-0.144531 z M 1.90625,11.347656 1.875,11.484375 1.6679688,13.771484 1.8710938,14.263672 2.3925781,14.376953 2.78125,14.011719 2.8105469,13.875 3.0195312,11.589844 2.8164062,11.095703 2.2949219,10.984375 Z m 15.6875,1.730469 -1.042969,0.585937 -0.01172,0.0059 -0.947265,0.55664 -0.28125,0.451172 0.210937,0.490235 0.523438,0.103515 0.126953,-0.05469 0.939453,-0.550781 0.0098,-0.0059 1.033203,-0.580078 0.291015,-0.445312 -0.201171,-0.494141 -0.521485,-0.115234 z m -3.982422,2.308594 -1.980469,1.162109 -0.28125,0.453125 0.210938,0.488281 0.523437,0.105469 0.126954,-0.05664 1.980468,-1.162109 0.283203,-0.451172 -0.21289,-0.490234 -0.521485,-0.103516 z M 1.4882812,15.919922 1.4589844,16.058594 1.25,18.34375 l 0.203125,0.492188 0.5214844,0.113281 0.3886718,-0.363281 0.029297,-0.136719 0.2089844,-2.28711 -0.203125,-0.492187 -0.5214844,-0.113281 z m 8.1640626,1.787109 -1.9863282,1.154297 -0.2832031,0.449219 0.2089844,0.490234 0.5214843,0.107422 0.1289063,-0.05469 L 10.228516,18.701172 10.511719,18.25 10.302734,17.759766 9.78125,17.652344 Z m -3.9726563,2.306641 -0.035156,0.01953 -0.00781,0.0059 -1.953125,1.085938 -0.2929688,0.445312 0.2011719,0.494141 0.5195312,0.117188 0.1308594,-0.05273 1.9609375,-1.091797 0.00977,-0.0059 0.042969,-0.02539 0.2851562,-0.451171 -0.2089844,-0.490235 -0.5234374,-0.105469 z m -4.609375,0.480469 -0.029297,0.136718 -0.20703122,2.267579 -0.001953,0.01953 0.0957031,0.232422 0.09375,0.246093 0.011719,0.002 0.00391,0.01172 0.2792968,0.06055 0.2226563,0.05664 0.013672,-0.0059 0.00391,0.002 0.00391,-0.0039 0.109375,-0.04102 L 2.1953125,23.205078 2.5,22.765625 2.3125,22.267578 2.0507812,22.201172 2.1855469,20.734375 1.9804688,20.242188 1.4609375,20.128906 Z"
     id="path249"
     inkscape:connector-curvature="0" /><path
     inkscape:connector-curvature="0"
     d="m 23.994859,15.365711 c -0.0026,0.209692 -0.135532,0.39637 -0.329881,0.470529 l -6.004364,2.278487 -2.278486,6.004362 c -0.07416,0.194349 -0.260837,0.327325 -0.47053,0.329882 h -0.0077 c -0.207135,0 -0.391256,-0.122747 -0.473087,-0.311981 L 8.180984,9.3050894 C 8.0991528,9.1132976 8.1426256,8.8908191 8.2909446,8.7450573 8.4367064,8.5967383 8.6591849,8.5532655 8.8509767,8.6350967 L 23.682878,14.884953 c 0.191792,0.08183 0.314539,0.273623 0.311981,0.480758 z"
     id="path4809"
     style="stroke-width:0.25572243" /><path
     inkscape:connector-curvature="0"
     d="M 22.107628,15.332467 9.6104723,10.064585 14.878354,22.56174 l 1.90769,-5.024946 c 0.0537,-0.135533 0.161105,-0.242936 0.296638,-0.296638 z"
     id="path1077"
     style="stroke-width:0.25572243" /><path
     style="stroke-width:0.26082864"
     d="m -3.4529386,-28.591441 c 0,-0.286912 -0.234746,-0.521657 -0.521658,-0.521657 -0.286911,0 -0.521657,0.234745 -0.521657,0.521657 v 2.235301 c 0,0.286912 0.234746,0.521658 0.521657,0.521658 0.286912,0 0.521658,-0.234746 0.521658,-0.521658 z"
     id="path5682" /><path
     style="stroke-width:0.26082864"
     d="m -3.9745966,-24.642496 c -0.286911,0 -0.521657,0.234746 -0.521657,0.521658 v 2.235301 c 0,0.286912 0.234746,0.521657 0.521657,0.521657 0.286912,0 0.521658,-0.234745 0.521658,-0.521657 v -2.235301 c 0,-0.286912 -0.234746,-0.521658 -0.521658,-0.521658 z"
     id="path5680" /><path
     style="stroke-width:0.26082864"
     d="m -5.2787396,-31.609228 h 0.782486 v 0.782486 c 0,0.286911 0.234746,0.521657 0.521657,0.521657 0.286912,0 0.521658,-0.234746 0.521658,-0.521657 v -1.304144 c 0,-0.286911 -0.234746,-0.521657 -0.521658,-0.521657 h -1.304143 c -0.286911,0 -0.521657,0.234746 -0.521657,0.521657 0,0.286912 0.234746,0.521658 0.521657,0.521658 z"
     id="path5678" /><path
     style="stroke-width:0.26082864"
     d="m -14.222553,-31.609228 h 2.235301 c 0.286911,0 0.521657,-0.234746 0.521657,-0.521658 0,-0.286911 -0.234746,-0.521657 -0.521657,-0.521657 h -2.235301 c -0.286912,0 -0.521657,0.234746 -0.521657,0.521657 0,0.286912 0.234745,0.521658 0.521657,0.521658 z"
     id="path5676" /><path
     style="stroke-width:0.26082864"
     d="m -9.7493426,-31.609228 h 2.235302 c 0.286911,0 0.521657,-0.234746 0.521657,-0.521658 0,-0.286911 -0.234746,-0.521657 -0.521657,-0.521657 h -2.235302 c -0.2869114,0 -0.5216574,0.234746 -0.5216574,0.521657 0,0.286912 0.232138,0.521658 0.5216574,0.521658 z"
     id="path5674" /><path
     style="stroke-width:0.26082864"
     d="m -18.693156,-31.609228 h 2.235301 c 0.286912,0 0.521658,-0.234746 0.521658,-0.521658 0,-0.286911 -0.234746,-0.521657 -0.521658,-0.521657 h -2.235301 c -0.286911,0 -0.521657,0.234746 -0.521657,0.521657 0,0.286912 0.234746,0.521658 0.521657,0.521658 z"
     id="path5672" /><path
     style="stroke-width:0.26082864"
     d="M -20.928457,-32.652543 H -22.2326 c -0.286912,0 -0.521658,0.234746 -0.521658,0.521657 v 1.304144 c 0,0.286911 0.234746,0.521657 0.521658,0.521657 0.286911,0 0.521657,-0.234746 0.521657,-0.521657 v -0.782486 h 0.782486 c 0.286911,0 0.521657,-0.234746 0.521657,-0.521658 0,-0.286911 -0.234746,-0.521657 -0.521657,-0.521657 z"
     id="path5670" /><path
     style="stroke-width:0.26082864"
     d="m -22.2326,-25.834482 c 0.286911,0 0.521657,-0.234746 0.521657,-0.521658 v -2.235301 c 0,-0.286912 -0.234746,-0.521657 -0.521657,-0.521657 -0.286912,0 -0.521658,0.234745 -0.521658,0.521657 v 2.235301 c 0,0.28952 0.234746,0.521658 0.521658,0.521658 z"
     id="path5668" /><path
     style="stroke-width:0.26082864"
     d="m -22.2326,-21.361271 c 0.286911,0 0.521657,-0.234746 0.521657,-0.521658 v -2.235301 c 0,-0.286911 -0.234746,-0.521657 -0.521657,-0.521657 -0.286912,0 -0.521658,0.234746 -0.521658,0.521657 v 2.235301 c 0,0.286912 0.234746,0.521658 0.521658,0.521658 z"
     id="path5666" /><path
     style="stroke-width:0.26082864"
     d="m -22.2326,-16.890669 c 0.286911,0 0.521657,-0.234745 0.521657,-0.521657 v -2.235301 c 0,-0.286912 -0.234746,-0.521657 -0.521657,-0.521657 -0.286912,0 -0.521658,0.234745 -0.521658,0.521657 v 2.235301 c 0,0.286912 0.234746,0.521657 0.521658,0.521657 z"
     id="path5664" /><path
     style="stroke-width:0.26082864"
     d="m -20.928457,-14.394539 h -0.782486 v -0.782486 c 0,-0.286911 -0.234746,-0.521657 -0.521657,-0.521657 -0.286912,0 -0.521658,0.234746 -0.521658,0.521657 v 1.304144 c 0,0.286911 0.234746,0.521657 0.521658,0.521657 h 1.304143 c 0.286911,0 0.521657,-0.234746 0.521657,-0.521657 0,-0.286912 -0.234746,-0.521658 -0.521657,-0.521658 z"
     id="path5662" /><path
     style="stroke-width:0.26082864"
     d="m -16.457855,-14.394539 h -2.235301 c -0.286911,0 -0.521657,0.234746 -0.521657,0.521658 0,0.286911 0.234746,0.521657 0.521657,0.521657 h 2.235301 c 0.286912,0 0.521658,-0.234746 0.521658,-0.521657 0,-0.286912 -0.232138,-0.521658 -0.521658,-0.521658 z"
     id="path5660" /><path
     style="stroke-width:0.26082864"
     d="m -11.462987,-13.872881 c 0,0.286911 -0.234745,0.521657 -0.521657,0.521657 h -2.235301 c -0.286911,0 -0.521657,-0.234746 -0.521657,-0.521657 0,-0.286912 0.234746,-0.521658 0.521657,-0.521658 h 2.235301 c 0.286912,0 0.521657,0.234746 0.521657,0.521658 z"
     id="path4811" /></svg>