<?xml version="1.0" encoding="UTF-8" standalone="no"?>
<svg
   xmlns:dc="http://purl.org/dc/elements/1.1/"
   xmlns:cc="http://creativecommons.org/ns#"
   xmlns:rdf="http://www.w3.org/1999/02/22-rdf-syntax-ns#"
   xmlns:svg="http://www.w3.org/2000/svg"
   xmlns="http://www.w3.org/2000/svg"
   xmlns:sodipodi="http://sodipodi.sourceforge.net/DTD/sodipodi-0.dtd"
   xmlns:inkscape="http://www.inkscape.org/namespaces/inkscape"
   version="1.1"
   x="0px"
   y="0px"
   viewBox="0 0 24 24"
   xml:space="preserve"
   id="svg1079"
   sodipodi:docname="regular-selection.svg"
   inkscape:version="0.92.2 5c3e80d, 2017-08-06"
   width="24"
   height="24"><metadata
     id="metadata1085"><rdf:RDF><cc:Work
         rdf:about=""><dc:format>image/svg+xml</dc:format><dc:type
           rdf:resource="http://purl.org/dc/dcmitype/StillImage" /><dc:title></dc:title></cc:Work></rdf:RDF></metadata><defs
     id="defs1083" /><sodipodi:namedview
     pagecolor="#ffffff"
     bordercolor="#666666"
     borderopacity="1"
     objecttolerance="10"
     gridtolerance="10"
     guidetolerance="10"
     inkscape:pageopacity="0"
     inkscape:pageshadow="2"
     inkscape:window-width="1113"
     inkscape:window-height="577"
     id="namedview1081"
     showgrid="false"
     inkscape:zoom="3.337544"
     inkscape:cx="65.135284"
     inkscape:cy="-1.7660965"
     inkscape:window-x="107"
     inkscape:window-y="43"
     inkscape:window-maximized="0"
     inkscape:current-layer="svg1079" /><g
     id="g4880"
     transform="matrix(0.26082863,0,0,0.26082863,-0.54143123,19.226649)"><path
       inkscape:connector-curvature="0"
       id="path4835"
       d="m 48.29,1 c 0,1.1 -0.9,2 -2,2 h -8.57 c -1.1,0 -2,-0.9 -2,-2 0,-1.1 0.9,-2 2,-2 h 8.57 c 1.1,0 2,0.9 2,2 z" /><path
       inkscape:connector-curvature="0"
       id="path4833"
       d="m 29.14,-1 h -8.57 c -1.1,0 -2,0.9 -2,2 0,1.1 0.9,2 2,2 h 8.57 c 1.1,0 2,-0.9 2,-2 0,-1.1 -0.89,-2 -2,-2 z" /><path
       inkscape:connector-curvature="0"
       id="path4831"
       d="M 12,-1 H 9 V -4 C 9,-5.1 8.1,-6 7,-6 5.9,-6 5,-5.1 5,-4 v 5 c 0,1.1 0.9,2 2,2 h 5 c 1.1,0 2,-0.9 2,-2 0,-1.1 -0.9,-2 -2,-2 z" /><path
       inkscape:connector-curvature="0"
       id="path4829"
       d="m 7,-10.57 c 1.1,0 2,-0.9 2,-2 v -8.57 c 0,-1.1 -0.9,-2 -2,-2 -1.1,0 -2,0.9 -2,2 v 8.57 c 0,1.1 0.9,2 2,2 z" /><path
       inkscape:connector-curvature="0"
       id="path4827"
       d="m 7,-27.71 c 1.1,0 2,-0.9 2,-2 v -8.57 c 0,-1.1 -0.9,-2 -2,-2 -1.1,0 -2,0.9 -2,2 v 8.57 c 0,1.1 0.9,2 2,2 z" /><path
       inkscape:connector-curvature="0"
       id="path4825"
       d="m 7,-44.86 c 1.1,0 2,-0.9 2,-2 v -8.57 c 0,-1.1 -0.9,-2 -2,-2 -1.1,0 -2,0.9 -2,2 v 8.57 c 0,1.11 0.9,2 2,2 z" /><path
       inkscape:connector-curvature="0"
       id="path4823"
       d="M 12,-71 H 7 c -1.1,0 -2,0.9 -2,2 v 5 c 0,1.1 0.9,2 2,2 1.1,0 2,-0.9 2,-2 v -3 h 3 c 1.1,0 2,-0.9 2,-2 0,-1.1 -0.9,-2 -2,-2 z" /><path
       inkscape:connector-curvature="0"
       id="path4821"
       d="m 20.57,-67 h 8.57 c 1.1,0 2,-0.9 2,-2 0,-1.1 -0.9,-2 -2,-2 h -8.57 c -1.1,0 -2,0.9 -2,2 0,1.1 0.9,2 2,2 z" /><path
       inkscape:connector-curvature="0"
       id="path4819"
       d="m 54.86,-67 h 8.57 c 1.1,0 2,-0.9 2,-2 0,-1.1 -0.9,-2 -2,-2 h -8.57 c -1.1,0 -2,0.9 -2,2 0,1.1 0.89,2 2,2 z" /><path
       inkscape:connector-curvature="0"
       id="path4817"
       d="m 37.71,-67 h 8.57 c 1.1,0 2,-0.9 2,-2 0,-1.1 -0.9,-2 -2,-2 h -8.57 c -1.1,0 -2,0.9 -2,2 0,1.1 0.9,2 2,2 z" /><path
       inkscape:connector-curvature="0"
       id="path4815"
       d="m 72,-67 h 3 v 3 c 0,1.1 0.9,2 2,2 1.1,0 2,-0.9 2,-2 v -5 c 0,-1.1 -0.9,-2 -2,-2 h -5 c -1.1,0 -2,0.9 -2,2 0,1.1 0.9,2 2,2 z" /><path
       inkscape:connector-curvature="0"
       id="path4813"
       d="m 77,-40.29 c -1.1,0 -2,0.9 -2,2 v 8.57 c 0,1.1 0.9,2 2,2 1.1,0 2,-0.9 2,-2 v -8.57 c 0,-1.1 -0.9,-2 -2,-2 z" /><path
       inkscape:connector-curvature="0"
       id="path4811"
       d="m 79,-55.43 c 0,-1.1 -0.9,-2 -2,-2 -1.1,0 -2,0.9 -2,2 v 8.57 c 0,1.1 0.9,2 2,2 1.1,0 2,-0.9 2,-2 z" /><path
       inkscape:connector-curvature="0"
       id="path4809"
       d="m 95,-16.52 c -0.01,0.82 -0.53,1.55 -1.29,1.84 L 70.23,-5.77 61.32,17.71 C 61.03,18.47 60.3,18.99 59.48,19 h -0.03 c -0.81,0 -1.53,-0.48 -1.85,-1.22 l -24.44,-58 c -0.32,-0.75 -0.15,-1.62 0.43,-2.19 0.57,-0.58 1.44,-0.75 2.19,-0.43 l 58,24.44 c 0.75,0.32 1.23,1.07 1.22,1.88 z" /><path
       inkscape:connector-curvature="0"
       id="path1077"
       d="m 87.62,-16.65 -48.87,-20.6 20.6,48.87 7.46,-19.65 c 0.21,-0.53 0.63,-0.95 1.16,-1.16 z" /></g></svg>