<?xml version="1.0" encoding="UTF-8"?>
<svg xmlns="http://www.w3.org/2000/svg" xmlns:xlink="http://www.w3.org/1999/xlink" width="24pt" height="24pt" viewBox="0 0 24 24" version="1.1">
<g id="surface1">
<path style=" stroke:none;fill-rule:nonzero;fill:rgb(0%,0%,0%);fill-opacity:1;" d="M 0 21.601562 L 2.398438 21.601562 L 2.398438 24 L 0 24 Z M 1.199219 18 L 0 18 L 0 20.398438 L 1.199219 20.398438 Z M 1.199219 14.398438 L 0 14.398438 L 0 16.800781 L 1.199219 16.800781 Z M 1.199219 10.800781 L 0 10.800781 L 0 13.199219 L 1.199219 13.199219 Z M 1.199219 7.199219 L 0 7.199219 L 0 9.601562 L 1.199219 9.601562 Z M 1.199219 3.601562 L 0 3.601562 L 0 6 L 1.199219 6 Z M 21.601562 24 L 24 24 L 24 21.601562 L 21.601562 21.601562 Z M 22.800781 20.398438 L 24 20.398438 L 24 18 L 22.800781 18 Z M 22.800781 16.800781 L 24 16.800781 L 24 14.398438 L 22.800781 14.398438 Z M 22.800781 13.199219 L 24 13.199219 L 24 10.800781 L 22.800781 10.800781 Z M 22.800781 9.601562 L 24 9.601562 L 24 7.199219 L 22.800781 7.199219 Z M 22.800781 6 L 24 6 L 24 3.601562 L 22.800781 3.601562 Z M 21.601562 0 L 21.601562 2.398438 L 24 2.398438 L 24 0 Z M 0 2.398438 L 2.398438 2.398438 L 2.398438 0 L 0 0 Z M 6 0 L 3.601562 0 L 3.601562 1.199219 L 6 1.199219 Z M 9.601562 0 L 7.199219 0 L 7.199219 1.199219 L 9.601562 1.199219 Z M 13.199219 0 L 10.800781 0 L 10.800781 1.199219 L 13.199219 1.199219 Z M 16.800781 0 L 14.398438 0 L 14.398438 1.199219 L 16.800781 1.199219 Z M 18 1.199219 L 20.398438 1.199219 L 20.398438 0 L 18 0 Z M 3.601562 24 L 6 24 L 6 22.800781 L 3.601562 22.800781 Z M 7.199219 24 L 9.601562 24 L 9.601562 22.800781 L 7.199219 22.800781 Z M 10.800781 24 L 13.199219 24 L 13.199219 22.800781 L 10.800781 22.800781 Z M 14.398438 24 L 16.800781 24 L 16.800781 22.800781 L 14.398438 22.800781 Z M 18 24 L 20.398438 24 L 20.398438 22.800781 L 18 22.800781 Z M 10.800781 3.601562 L 3.601562 3.601562 L 3.601562 10.800781 L 10.800781 10.800781 Z M 10.800781 13.199219 L 3.601562 13.199219 L 3.601562 20.398438 L 10.800781 20.398438 Z M 13.199219 20.398438 L 20.398438 20.398438 L 20.398438 13.199219 L 13.199219 13.199219 Z M 13.199219 10.800781 L 20.398438 10.800781 L 20.398438 3.601562 L 13.199219 3.601562 Z M 13.199219 10.800781 "/>
</g>
</svg>
